<svg width="79" height="36" viewBox="0 0 79 36" fill="none" xmlns="http://www.w3.org/2000/svg">
<g clip-path="url(#clip0_20:1073)">
<path d="M17.951 6.85207C18.6197 6.85207 19.1618 6.30999 19.1618 5.6413C19.1618 4.97262 18.6197 4.43054 17.951 4.43054C17.2823 4.43054 16.7403 4.97262 16.7403 5.6413C16.7403 6.30999 17.2823 6.85207 17.951 6.85207Z" fill="#231F20"/>
<path d="M17.951 11.8475C18.6197 11.8475 19.1618 11.3055 19.1618 10.6368C19.1618 9.9681 18.6197 9.42603 17.951 9.42603C17.2823 9.42603 16.7403 9.9681 16.7403 10.6368C16.7403 11.3055 17.2823 11.8475 17.951 11.8475Z" fill="#231F20"/>
<path d="M17.951 16.8432C18.6197 16.8432 19.1618 16.3011 19.1618 15.6324C19.1618 14.9637 18.6197 14.4216 17.951 14.4216C17.2823 14.4216 16.7403 14.9637 16.7403 15.6324C16.7403 16.3011 17.2823 16.8432 17.951 16.8432Z" fill="#231F20"/>
<path d="M17.951 21.8476C18.6197 21.8476 19.1618 21.3055 19.1618 20.6368C19.1618 19.9681 18.6197 19.426 17.951 19.426C17.2823 19.426 16.7403 19.9681 16.7403 20.6368C16.7403 21.3055 17.2823 21.8476 17.951 21.8476Z" fill="#231F20"/>
<path d="M17.951 26.843C18.6197 26.843 19.1618 26.301 19.1618 25.6323C19.1618 24.9636 18.6197 24.4215 17.951 24.4215C17.2823 24.4215 16.7403 24.9636 16.7403 25.6323C16.7403 26.301 17.2823 26.843 17.951 26.843Z" fill="#231F20"/>
<path d="M17.951 31.8386C18.6197 31.8386 19.1618 31.2966 19.1618 30.6279C19.1618 29.9592 18.6197 29.4171 17.951 29.4171C17.2823 29.4171 16.7403 29.9592 16.7403 30.6279C16.7403 31.2966 17.2823 31.8386 17.951 31.8386Z" fill="#231F20"/>
<path d="M30.4657 7.11606C31.0241 6.74822 31.1786 5.99733 30.8108 5.43891C30.4429 4.8805 29.6921 4.726 29.1336 5.09385C28.5752 5.46169 28.4207 6.21258 28.7886 6.771C29.1564 7.32941 29.9073 7.48391 30.4657 7.11606Z" fill="#231F20"/>
<path d="M27.0492 4.50168C27.6077 4.13384 27.7622 3.38295 27.3943 2.82453C27.0265 2.26612 26.2756 2.11162 25.7172 2.47947C25.1587 2.84731 25.0043 3.5982 25.3721 4.15662C25.7399 4.71504 26.4908 4.86953 27.0492 4.50168Z" fill="#231F20"/>
<path d="M23.0581 2.82383C23.6165 2.45598 23.771 1.7051 23.4031 1.14668C23.0353 0.588258 22.2844 0.433767 21.726 0.801611C21.1676 1.16945 21.0131 1.92034 21.3809 2.47876C21.7488 3.03718 22.4996 3.19167 23.0581 2.82383Z" fill="#231F20"/>
<path d="M18.6598 2.22312C19.2182 1.85527 19.3727 1.10439 19.0049 0.54597C18.637 -0.012449 17.8861 -0.166941 17.3277 0.200903C16.7693 0.568747 16.6148 1.31963 16.9827 1.87805C17.3505 2.43647 18.1014 2.59096 18.6598 2.22312Z" fill="#231F20"/>
<path d="M14.1416 2.83298C14.7 2.46514 14.8545 1.71425 14.4867 1.15583C14.1188 0.597414 13.368 0.442922 12.8095 0.810766C12.2511 1.17861 12.0966 1.92949 12.4645 2.48791C12.8323 3.04633 13.5832 3.20083 14.1416 2.83298Z" fill="#231F20"/>
<path d="M10.0902 4.55478C10.6486 4.18694 10.8031 3.43605 10.4353 2.87764C10.0674 2.31922 9.31654 2.16472 8.75812 2.53257C8.1997 2.90041 8.04521 3.6513 8.41305 4.20972C8.78089 4.76814 9.53178 4.92263 10.0902 4.55478Z" fill="#231F20"/>
<path d="M6.68871 7.20163C7.24713 6.83379 7.40162 6.08291 7.03378 5.52449C6.66593 4.96607 5.91505 4.81157 5.35663 5.17942C4.79821 5.54726 4.64372 6.29815 5.01156 6.85657C5.37941 7.41499 6.13029 7.56948 6.68871 7.20163Z" fill="#231F20"/>
<path d="M4.08885 10.608C4.64727 10.2402 4.80177 9.48928 4.43392 8.93086C4.06608 8.37244 3.31519 8.21795 2.75677 8.58579C2.19835 8.95363 2.04386 9.70452 2.41171 10.2629C2.77955 10.8214 3.53044 10.9758 4.08885 10.608Z" fill="#231F20"/>
<path d="M2.42 14.5909C2.97842 14.2231 3.13291 13.4722 2.76507 12.9138C2.39722 12.3553 1.64634 12.2009 1.08792 12.5687C0.529501 12.9365 0.375009 13.6874 0.742853 14.2458C1.1107 14.8043 1.86158 14.9588 2.42 14.5909Z" fill="#231F20"/>
<path d="M1.82884 18.9775C2.38726 18.6097 2.54176 17.8588 2.17391 17.3004C1.80607 16.7419 1.05518 16.5875 0.496764 16.9553C-0.061655 17.3231 -0.216147 18.074 0.151697 18.6324C0.519541 19.1909 1.27043 19.3454 1.82884 18.9775Z" fill="#231F20"/>
<path d="M2.43685 23.4873C2.99527 23.1194 3.14976 22.3685 2.78191 21.8101C2.41407 21.2517 1.66319 21.0972 1.10477 21.4651C0.546347 21.8329 0.391855 22.5838 0.759699 23.1422C1.12754 23.7006 1.87843 23.8551 2.43685 23.4873Z" fill="#231F20"/>
<path d="M4.15868 27.5387C4.7171 27.1708 4.87159 26.4199 4.50375 25.8615C4.1359 25.3031 3.38502 25.1486 2.8266 25.5165C2.26818 25.8843 2.11369 26.6352 2.48153 27.1936C2.84938 27.752 3.60026 27.9065 4.15868 27.5387Z" fill="#231F20"/>
<path d="M6.80553 30.9402C7.36395 30.5723 7.51844 29.8214 7.1506 29.263C6.78275 28.7046 6.03187 28.5501 5.47345 28.9179C4.91503 29.2858 4.76054 30.0367 5.12838 30.5951C5.49623 31.1535 6.24711 31.308 6.80553 30.9402Z" fill="#231F20"/>
<path d="M10.2119 33.54C10.7703 33.1722 10.9248 32.4213 10.5569 31.8629C10.1891 31.3044 9.43821 31.15 8.87979 31.5178C8.32137 31.8856 8.16688 32.6365 8.53472 33.1949C8.90257 33.7534 9.65345 33.9079 10.2119 33.54Z" fill="#231F20"/>
<path d="M14.1948 35.2088C14.7532 34.841 14.9077 34.0901 14.5399 33.5317C14.172 32.9733 13.4212 32.8188 12.8627 33.1866C12.3043 33.5545 12.1498 34.3053 12.5177 34.8638C12.8855 35.4222 13.6364 35.5767 14.1948 35.2088Z" fill="#231F20"/>
<path d="M18.5813 35.8C19.1397 35.4322 19.2942 34.6813 18.9264 34.1229C18.5585 33.5645 17.8076 33.41 17.2492 33.7778C16.6908 34.1457 16.5363 34.8965 16.9041 35.455C17.272 36.0134 18.0229 36.1679 18.5813 35.8Z" fill="#231F20"/>
<path d="M23.0911 35.1921C23.6495 34.8243 23.804 34.0734 23.4362 33.515C23.0683 32.9565 22.3175 32.8021 21.759 33.1699C21.2006 33.5377 21.0461 34.2886 21.414 34.847C21.7818 35.4055 22.5327 35.56 23.0911 35.1921Z" fill="#231F20"/>
<path d="M27.1475 33.4778C27.7059 33.1099 27.8604 32.359 27.4925 31.8006C27.1247 31.2422 26.3738 31.0877 25.8154 31.4555C25.257 31.8234 25.1025 32.5743 25.4703 33.1327C25.8382 33.6911 26.5891 33.8456 27.1475 33.4778Z" fill="#231F20"/>
<path d="M30.544 30.8235C31.1024 30.4556 31.2569 29.7047 30.8891 29.1463C30.5212 28.5879 29.7703 28.4334 29.2119 28.8012C28.6535 29.1691 28.499 29.92 28.8668 30.4784C29.2347 31.0368 29.9856 31.1913 30.544 30.8235Z" fill="#231F20"/>
<path d="M33.1488 27.4245C33.7072 27.0567 33.8617 26.3058 33.4939 25.7474C33.126 25.189 32.3751 25.0345 31.8167 25.4023C31.2583 25.7702 31.1038 26.521 31.4716 27.0795C31.8395 27.6379 32.5904 27.7924 33.1488 27.4245Z" fill="#231F20"/>
<path d="M34.8128 23.4342C35.3712 23.0663 35.5257 22.3154 35.1578 21.757C34.79 21.1986 34.0391 21.0441 33.4807 21.412C32.9223 21.7798 32.7678 22.5307 33.1356 23.0891C33.5035 23.6475 34.2543 23.802 34.8128 23.4342Z" fill="#231F20"/>
<path d="M35.4039 19.0476C35.9623 18.6797 36.1168 17.9289 35.749 17.3704C35.3811 16.812 34.6303 16.6575 34.0718 17.0254C33.5134 17.3932 33.3589 18.1441 33.7268 18.7025C34.0946 19.2609 34.8455 19.4154 35.4039 19.0476Z" fill="#231F20"/>
<path d="M34.8036 14.5433C35.362 14.1755 35.5165 13.4246 35.1486 12.8662C34.7808 12.3077 34.0299 12.1533 33.4715 12.5211C32.9131 12.8889 32.7586 13.6398 33.1264 14.1982C33.4943 14.7567 34.2452 14.9112 34.8036 14.5433Z" fill="#231F20"/>
<path d="M33.0938 10.5097C33.6522 10.1419 33.8067 9.39101 33.4389 8.83259C33.0711 8.27417 32.3202 8.11968 31.7617 8.48752C31.2033 8.85537 31.0488 9.60625 31.4167 10.1647C31.7845 10.7231 32.5354 10.8776 33.0938 10.5097Z" fill="#231F20"/>
<path d="M30.4657 7.11606C31.0241 6.74822 31.1786 5.99733 30.8108 5.43891C30.4429 4.8805 29.6921 4.726 29.1336 5.09385C28.5752 5.46169 28.4207 6.21258 28.7886 6.771C29.1564 7.32941 29.9073 7.48391 30.4657 7.11606Z" fill="#231F20"/>
<path d="M50.4988 6.84955C50.5614 6.1838 50.0725 5.59338 49.4067 5.53081C48.741 5.46823 48.1506 5.95719 48.088 6.62293C48.0254 7.28868 48.5144 7.8791 49.1801 7.94168C49.8458 8.00425 50.4363 7.51529 50.4988 6.84955Z" fill="#231F20"/>
<path d="M54.9775 11.2334C54.984 10.5647 54.4473 10.0174 53.7786 10.0108C53.1099 10.0043 52.5625 10.5411 52.556 11.2098C52.5495 11.8785 53.0862 12.4258 53.7549 12.4324C54.4236 12.4389 54.971 11.9021 54.9775 11.2334Z" fill="#231F20"/>
<path d="M58.4324 16.9001C59.0931 16.7973 59.5454 16.1783 59.4425 15.5175C59.3397 14.8568 58.7207 14.4045 58.0599 14.5074C57.3992 14.6102 56.947 15.2292 57.0498 15.89C57.1526 16.5507 57.7716 17.0029 58.4324 16.9001Z" fill="#231F20"/>
<path d="M63.263 21.2823C63.8618 20.9845 64.1058 20.2578 63.808 19.659C63.5102 19.0603 62.7835 18.8163 62.1848 19.114C61.586 19.4118 61.342 20.1386 61.6398 20.7373C61.9376 21.3361 62.6643 21.58 63.263 21.2823Z" fill="#231F20"/>
<path d="M68.0505 25.537C68.5233 25.0642 68.5233 24.2976 68.0505 23.8248C67.5776 23.352 66.811 23.352 66.3382 23.8248C65.8654 24.2976 65.8654 25.0642 66.3382 25.537C66.811 26.0099 67.5776 26.0099 68.0505 25.537Z" fill="#231F20"/>
<path d="M72.663 29.8692C73.0485 29.3228 72.9181 28.5674 72.3717 28.1819C71.8254 27.7964 71.0699 27.9268 70.6844 28.4732C70.2989 29.0196 70.4294 29.775 70.9757 30.1605C71.5221 30.546 72.2776 30.4156 72.663 29.8692Z" fill="#231F20"/>
<path d="M78.226 35.3029C78.5131 34.699 78.2563 33.9767 77.6525 33.6896C77.0486 33.4025 76.3263 33.6592 76.0391 34.2631C75.752 34.867 76.0088 35.5893 76.6127 35.8765C77.2165 36.1636 77.9389 35.9068 78.226 35.3029Z" fill="#231F20"/>
<path d="M72.6406 35.2922C72.9219 34.6855 72.658 33.9656 72.0513 33.6844C71.4446 33.4031 70.7248 33.667 70.4436 34.2737C70.1623 34.8804 70.4262 35.6002 71.0328 35.8814C71.6395 36.1627 72.3594 35.8989 72.6406 35.2922Z" fill="#231F20"/>
<path d="M67.0515 35.2743C67.3267 34.6649 67.0558 33.9477 66.4463 33.6725C65.8369 33.3973 65.1197 33.6682 64.8445 34.2776C64.5693 34.8871 64.8402 35.6042 65.4496 35.8795C66.0591 36.1547 66.7762 35.8838 67.0515 35.2743Z" fill="#231F20"/>
<path d="M61.4583 35.2676C61.7274 34.6555 61.4494 33.9411 60.8373 33.6719C60.2251 33.4028 59.5107 33.6808 59.2416 34.2929C58.9725 34.905 59.2505 35.6194 59.8626 35.8886C60.4747 36.1577 61.1891 35.8797 61.4583 35.2676Z" fill="#231F20"/>
<path d="M55.8735 35.2607C56.1366 34.6459 55.8514 33.9343 55.2366 33.6712C54.6218 33.4082 53.9102 33.6933 53.6472 34.3081C53.3841 34.9229 53.6692 35.6345 54.284 35.8976C54.8988 36.1606 55.6104 35.8755 55.8735 35.2607Z" fill="#231F20"/>
<path d="M50.2852 35.2439C50.5421 34.6265 50.2498 33.9177 49.6324 33.6609C49.015 33.4041 48.3063 33.6963 48.0494 34.3137C47.7926 34.9311 48.0849 35.6399 48.7023 35.8967C49.3197 36.1535 50.0284 35.8612 50.2852 35.2439Z" fill="#231F20"/>
<path d="M44.6924 35.2359C44.9429 34.616 44.6435 33.9103 44.0236 33.6597C43.4036 33.4092 42.6979 33.7086 42.4474 34.3286C42.1968 34.9485 42.4963 35.6542 43.1162 35.9047C43.7361 36.1553 44.4418 35.8558 44.6924 35.2359Z" fill="#231F20"/>
<path d="M44.7064 29.6336C44.9506 29.0111 44.644 28.3085 44.0216 28.0642C43.3991 27.8199 42.6964 28.1265 42.4522 28.749C42.2079 29.3715 42.5145 30.0741 43.137 30.3184C43.7595 30.5627 44.4621 30.2561 44.7064 29.6336Z" fill="#231F20"/>
<path d="M44.7057 24.0249C44.9436 23.4 44.6298 22.7005 44.0048 22.4627C43.3799 22.2248 42.6804 22.5386 42.4426 23.1636C42.2047 23.7885 42.5185 24.488 43.1435 24.7258C43.7684 24.9637 44.4679 24.6499 44.7057 24.0249Z" fill="#231F20"/>
<path d="M44.7076 18.4189C44.9391 17.7916 44.6181 17.0954 43.9907 16.864C43.3634 16.6325 42.6672 16.9535 42.4357 17.5809C42.2043 18.2082 42.5253 18.9044 43.1526 19.1358C43.78 19.3673 44.4762 19.0463 44.7076 18.4189Z" fill="#231F20"/>
<path d="M44.7203 12.8172C44.9453 12.1875 44.6173 11.4947 43.9876 11.2696C43.3579 11.0446 42.665 11.3727 42.44 12.0024C42.215 12.6321 42.543 13.325 43.1727 13.55C43.8024 13.775 44.4953 13.4469 44.7203 12.8172Z" fill="#231F20"/>
<path d="M44.7182 7.21066C44.9366 6.57869 44.6014 5.88927 43.9694 5.67082C43.3375 5.45236 42.648 5.78758 42.4296 6.41955C42.2111 7.05153 42.5463 7.74094 43.1783 7.9594C43.8103 8.17786 44.4997 7.84264 44.7182 7.21066Z" fill="#231F20"/>
<path d="M44.7222 1.60554C44.9342 0.971361 44.5919 0.285417 43.9578 0.0734438C43.3236 -0.13853 42.6376 0.203738 42.4257 0.837919C42.2137 1.4721 42.556 2.15804 43.1901 2.37002C43.8243 2.58199 44.5103 2.23972 44.7222 1.60554Z" fill="#231F20"/>
<path d="M50.3207 1.58722C50.5261 0.950828 50.1768 0.268407 49.5404 0.0629868C48.904 -0.142433 48.2216 0.206935 48.0161 0.843323C47.8107 1.47971 48.1601 2.16213 48.7965 2.36755C49.4329 2.57297 50.1153 2.2236 50.3207 1.58722Z" fill="#231F20"/>
<path d="M55.9174 1.5817C56.1163 0.943243 55.7599 0.264454 55.1214 0.0655873C54.483 -0.13328 53.8042 0.223081 53.6053 0.861542C53.4065 1.5 53.7628 2.17879 54.4013 2.37766C55.0397 2.57653 55.7185 2.22016 55.9174 1.5817Z" fill="#231F20"/>
<path d="M61.5118 1.56728C61.704 0.926815 61.3407 0.251766 60.7002 0.0595193C60.0597 -0.132728 59.3847 0.230626 59.1925 0.871093C59.0002 1.51156 59.3636 2.18661 60.004 2.37886C60.6445 2.5711 61.3195 2.20775 61.5118 1.56728Z" fill="#231F20"/>
<path d="M67.1123 1.55249C67.298 0.910084 66.9277 0.238776 66.2853 0.0530822C65.6429 -0.132612 64.9716 0.237627 64.7859 0.880033C64.6002 1.52244 64.9705 2.19375 65.6129 2.37944C66.2553 2.56514 66.9266 2.1949 67.1123 1.55249Z" fill="#231F20"/>
<path d="M72.7031 1.54551C72.8822 0.901235 72.5051 0.233776 71.8608 0.0547019C71.2165 -0.124372 70.5491 0.252751 70.37 0.897029C70.1909 1.54131 70.5681 2.20877 71.2123 2.38784C71.8566 2.56691 72.5241 2.18979 72.7031 1.54551Z" fill="#231F20"/>
<path d="M78.3022 1.5367C78.4747 0.890684 78.0908 0.227127 77.4448 0.0546065C76.7988 -0.117914 76.1353 0.26593 75.9627 0.911947C75.7902 1.55796 76.1741 2.22152 76.8201 2.39404C77.4661 2.56656 78.1296 2.18272 78.3022 1.5367Z" fill="#231F20"/>
<path d="M78.3082 7.11627C78.4742 6.46851 78.0836 5.80886 77.4358 5.64289C76.7881 5.47692 76.1284 5.86749 75.9625 6.51524C75.7965 7.163 76.1871 7.82265 76.8348 7.98862C77.4826 8.15459 78.1422 7.76402 78.3082 7.11627Z" fill="#231F20"/>
<path d="M78.32 12.6957C78.4795 12.0463 78.0823 11.3905 77.4329 11.231C76.7834 11.0716 76.1277 11.4687 75.9682 12.1182C75.8087 12.7676 76.2059 13.4234 76.8553 13.5828C77.5048 13.7423 78.1605 13.3451 78.32 12.6957Z" fill="#231F20"/>
<path d="M78.3109 18.278C78.4639 17.627 78.0601 16.9753 77.4092 16.8224C76.7582 16.6694 76.1066 17.0732 75.9536 17.7242C75.8007 18.3751 76.2044 19.0268 76.8554 19.1797C77.5063 19.3327 78.158 18.9289 78.3109 18.278Z" fill="#231F20"/>
<path d="M78.3144 23.8617C78.4609 23.2092 78.0507 22.5616 77.3982 22.4152C76.7458 22.2687 76.0982 22.6789 75.9517 23.3314C75.8053 23.9838 76.2155 24.6314 76.8679 24.7779C77.5203 24.9243 78.168 24.5141 78.3144 23.8617Z" fill="#231F20"/>
<path d="M78.3211 29.4455C78.4612 28.7917 78.0446 28.1481 77.3908 28.0081C76.737 27.8681 76.0934 28.2846 75.9534 28.9384C75.8134 29.5923 76.2299 30.2358 76.8837 30.3758C77.5376 30.5159 78.1811 30.0993 78.3211 29.4455Z" fill="#231F20"/>
<path d="M78.322 35.0281C78.4557 34.3729 78.0329 33.7335 77.3778 33.5998C76.7226 33.4661 76.0831 33.8889 75.9494 34.544C75.8158 35.1992 76.2385 35.8387 76.8937 35.9724C77.5489 36.106 78.1884 35.6833 78.322 35.0281Z" fill="#231F20"/>
</g>
<defs>
<clipPath id="clip0_20:1073">
<rect width="78.4036" height="36" fill="white"/>
</clipPath>
</defs>
</svg>
